<?xml version="1.0" encoding="UTF-8"?>
<svg id="Capa_2" data-name="Capa 2" xmlns="http://www.w3.org/2000/svg" viewBox="0 0 134.03 130.82">
  <defs>
    <style>
      .cls-1 {
        fill: #212121;
      }
    </style>
  </defs>
  <g id="Capa_1-2" data-name="Capa 1">
    <path class="cls-1" d="M100.35,35.61V2.87c0-2.18-2.33-3.56-4.25-2.52l-27.94,15.29c-.92.5-1.49,1.47-1.49,2.52v50.62c0,2.23-2.44,3.61-4.35,2.46l-27.27-16.41c-.86-.52-1.39-1.45-1.39-2.46V19.63c0-2.18-2.33-3.56-4.25-2.52L1.49,32.4c-.92.5-1.49,1.47-1.49,2.52v51.97c0,2.17,2.32,3.55,4.23,2.53l25.22-13.55c1.91-1.03,4.23.36,4.23,2.53v32.46c0,1,.52,1.93,1.37,2.45l27.94,17.1c1.91,1.17,4.37-.21,4.37-2.45v-51.66c0-1.06.58-2.03,1.51-2.53l27.27-14.65c1.91-1.03,4.23.36,4.23,2.53v32.46c0,1,.52,1.93,1.37,2.45l27.94,17.1c1.91,1.17,4.37-.21,4.37-2.45v-52.06c0-1.01-.53-1.94-1.39-2.46l-30.9-18.6c-.86-.52-1.39-1.45-1.39-2.46Z"/>
  </g>
</svg>